# 3ds Max Wavefront OBJ Exporter v0.97b - (c)2007 guruware
# File Created: 15.12.2016 20:59:46

#
# object default001
#

v  0.100000 0.000000 -0.100000
v  -0.100000 0.000000 -0.100000
v  0.100000 0.000000 0.100000
v  -0.100000 0.000000 0.100000
# 4 vertices

vn 0.000000 1.000000 0.000000
# 1 vertex normals

vt -0.000000 1.000000 0.894446
vt 1.000000 1.000000 0.227780
vt 0.000000 0.000000 0.772220
vt 1.000000 0.000000 0.105554
# 4 texture coords

g default001
s 1
f 1/1/1 2/2/1 3/3/1 
f 2/2/1 4/4/1 3/3/1 
# 0 polygons - 2 triangles

